<svg class="injected-svg" id="svg-0bb6d6ec-e463-4963-8c57-019b5c3ed82d" height="70" width="120" viewBox="0 0 307 177" xmlns="http://www.w3.org/2000/svg">
  <g xmlns="http://www.w3.org/2000/svg" fill="#000000" id="shape-svg">
    <title>graphic</title>
    <g id="Слой_2" data-name="Слой 2">
      <g id="Слой_1-2" data-name="Слой 1">
        <path transform="translate(150, 10) scale(0.5,0.5)" d="M0,279.62.55,33.68C.61,7.73,28.73-8.42,51.17,4.6L263.89,128.05c22.44,13,22.36,45.45-.13,58.38L50.49,308.92C28,321.84-.06,305.57,0,279.62Z"/>
      </g>
    </g>
  </g>
  <g xmlns="http://www.w3.org/2000/svg" fill="#ffffff" id="icon-svg">
    <path transform="translate(155, 40) scale(0.5,0.5)" d="M 46.961 22.298 C 44.508 23.594, 41.150 26.570, 39.500 28.912 L 36.500 33.171 36.229 98.889 L 35.958 164.607 38.306 169.053 C 39.597 171.499, 42.570 174.850, 44.912 176.500 L 49.171 179.500 105.726 179.500 C 158.501 179.500, 162.355 179.383, 163.386 177.750 C 164.191 176.474, 164.191 175.526, 163.386 174.250 C 162.363 172.628, 158.229 172.464, 106.660 172 L 51.037 171.500 47.769 168.231 C 44.956 165.417, 44.500 164.270, 44.500 160 C 44.500 155.730, 44.956 154.583, 47.768 151.769 L 51.036 148.500 96.934 148 L 142.831 147.500 147.089 144.500 C 149.431 142.850, 152.394 139.517, 153.673 137.093 L 156 132.685 156 84 L 156 35.315 153.673 30.907 C 152.394 28.483, 149.430 25.150, 147.088 23.500 L 142.830 20.500 97.126 20.221 L 51.423 19.943 46.961 22.298 M 51.500 28.938 C 50.400 29.402, 48.375 30.991, 47 32.471 L 44.500 35.160 44.225 89.619 L 43.950 144.079 46.679 142.289 C 49.170 140.656, 53.394 140.456, 95.186 140 L 140.964 139.500 144.232 136.231 L 147.500 132.962 147.500 84 L 147.500 35.038 144.232 31.769 L 140.963 28.500 97.232 28.298 C 73.179 28.186, 52.600 28.475, 51.500 28.938 M 70.907 54.327 C 57.497 61.406, 56.364 79.661, 68.792 88.415 C 74.014 92.094, 81.713 92.982, 87.481 90.572 L 91.403 88.934 102.967 100.467 C 109.327 106.810, 115.221 112, 116.065 112 C 116.909 112, 118.140 111.460, 118.800 110.800 C 119.460 110.140, 120 108.909, 120 108.065 C 120 107.221, 114.810 101.327, 108.467 94.967 L 96.934 83.403 98.572 79.481 C 103.831 66.896, 93.763 52, 80 52 C 77.025 52, 73.706 52.849, 70.907 54.327 M 75.500 60.903 C 71.049 62.858, 68.500 66.921, 68.500 72.061 C 68.500 76.262, 68.966 77.428, 71.769 80.231 C 74.583 83.045, 75.730 83.500, 80 83.500 C 84.270 83.500, 85.417 83.045, 88.231 80.231 C 91.045 77.417, 91.500 76.270, 91.500 72 C 91.500 67.787, 91.033 66.572, 88.407 63.945 C 85.105 60.643, 79.239 59.261, 75.500 60.903" stroke="none" fill-rule="evenodd"/>
  </g>
  <path xmlns="http://www.w3.org/2000/svg" id="SvgjsPath7895379" d="M8.46 0L50.29 0L50.29-14.10L23.50-14.10L23.50-65.80L8.46-65.80ZM54.80 0L68.90 0L68.90-42.30L54.80-42.30ZM53.58-56.87C53.58-51.32 57.53-48.32 62.13-48.32C66.18-48.32 70.12-51.32 70.12-56.87C70.12-61.85 66.18-64.86 62.13-64.86C57.53-64.86 53.58-61.85 53.58-56.87ZM80.46-3.38C84.22-1.32 92.03 1.13 99.17 1.13C114.68 1.13 123.89-7.90 123.89-21.81C123.89-34.31 116.37-43.43 103.87-43.43C100.02-43.43 96.91-42.39 94.56-41.17L94.56-65.80L80.46-65.80ZM100.49-30.27C104.53-30.27 108.85-27.64 108.85-20.96C108.85-15.13 104.90-12.03 99.83-12.03C97.57-12.03 95.97-12.50 94.56-13.25L94.56-27.54C96.07-29.05 97.95-30.27 100.49-30.27Z" fill="#000000" fontsize="94" transform="matrix(1,0,0,1,10,120)"/>
</svg>
